# xmcd
#
# Track frame offsets:
#	150
#	20892
#	43916
#	68085
#	89045
#	116291
#	134851
#	179053
#	196400
#	216789
#	233780
#	254465
#	271260
#	292024
#	316441
#	331406
#	350090
#
# Disc length: 4794 seconds
#
# Revision: 1
# Processed by: cddbd v1.5.1PL2 Copyright (c) Steve Scherf et al.
# Submitted via: EasyCDDAExtractor 7.0.6.1
#
DISCID=1f12b811
DTITLE=Muddy Waters - Muddy "Mississippi" Waters Live/King Bee
DYEAR=2003
DGENRE=Blues
TTITLE0=Nannish Boy
TTITLE1=She's Nineteen Years Old
TTITLE2=Nine Below Zero
TTITLE3=Streamline Woman
TTITLE4=Howling Wolf
TTITLE5=Baby Please Don't Go
TTITLE6=Deep Down in Florida
TTITLE7=I'm A King Bee
TTITLE8=Too Young To Know
TTITLE9=Mean Old Frisco Blues
TTITLE10=Forever Lonely
TTITLE11=I Feel Like Going Home
TTITLE12=Champagne and Reefer
TTITLE13=Sad, Sad Day
TTITLE14=(My Eyes) Keep Me In Trouble
TTITLE15=Deep Down In Florida #2
TTITLE16=No Escape From The Blues
EXTD=
EXTT0=
EXTT1=
EXTT2=
EXTT3=
EXTT4=
EXTT5=
EXTT6=
EXTT7=
EXTT8=
EXTT9=
EXTT10=
EXTT11=
EXTT12=
EXTT13=
EXTT14=
EXTT15=
EXTT16=
PLAYORDER=
